<svg width="239" height="48" viewBox="0 0 239 48" fill="none" xmlns="http://www.w3.org/2000/svg">
<rect width="64" height="48" rx="8" fill="#0033FF"/>
<path fill-rule="evenodd" clip-rule="evenodd" d="M34 14C34 12.8954 34.8954 12 36 12H42C43.1046 12 44 12.8954 44 14V20C44 21.1046 43.1046 22 42 22H36C34.8954 22 34 21.1046 34 20V14ZM37 19V15H41V19H37Z" fill="white"/>
<path fill-rule="evenodd" clip-rule="evenodd" d="M46 28C46 26.8954 46.8954 26 48 26H54C55.1046 26 56 26.8954 56 28V34C56 35.1046 55.1046 36 54 36H48C46.8954 36 46 35.1046 46 34V28ZM49 33V29H53V33H49Z" fill="white"/>
<path d="M51.5 12C52.3284 12 53 12.6716 53 13.5V19H54.5C55.3284 19 56 19.6716 56 20.5C56 21.3284 55.3284 22 54.5 22H47.5C46.6716 22 46 21.3284 46 20.5C46 19.6716 46.6716 19 47.5 19H50V15H48.5C47.6716 15 47 14.3284 47 13.5C47 12.6716 47.6716 12 48.5 12H51.5Z" fill="white"/>
<path d="M38 29H36.5C35.6716 29 35 28.3284 35 27.5C35 26.6716 35.6716 26 36.5 26H39.5C40.3284 26 41 26.6716 41 27.5V33H42.5C43.3284 33 44 33.6716 44 34.5C44 35.3284 43.3284 36 42.5 36H35.5C34.6716 36 34 35.3284 34 34.5C34 33.6716 34.6716 33 35.5 33H38V29Z" fill="white"/>
<path d="M27.7494 14.8369C28.1707 15.194 28.1687 15.8313 27.7782 16.2218L20.7071 23.2929C20.3166 23.6834 20.3166 24.3166 20.7071 24.7071L27.7782 31.7782C28.1687 32.1687 28.1707 32.806 27.7494 33.1631C23.0346 37.1595 15.963 36.9335 11.5147 32.4853C6.82843 27.799 6.82843 20.201 11.5147 15.5147C15.963 11.0665 23.0346 10.8405 27.7494 14.8369Z" fill="white"/>
<path d="M80 37.8V9.79999H92.08C93.84 9.79999 95.4 10.2 96.76 11C98.1467 11.8 99.24 12.8933 100.04 14.28C100.867 15.6667 101.28 17.2267 101.28 18.96C101.28 20.7733 100.867 22.4 100.04 23.84C99.24 25.2533 98.1467 26.3733 96.76 27.2C95.4 28.0267 93.84 28.44 92.08 28.44H86.8V37.8H80ZM86.68 22.48H91.12C91.7067 22.48 92.24 22.3333 92.72 22.04C93.2 21.7467 93.5867 21.3467 93.88 20.84C94.1733 20.3333 94.32 19.7467 94.32 19.08C94.32 18.3867 94.1733 17.8 93.88 17.32C93.5867 16.84 93.2 16.4667 92.72 16.2C92.24 15.9333 91.7067 15.8 91.12 15.8H86.68V22.48Z" fill="#212529"/>
<path d="M113.254 38.16C111.467 38.16 109.867 37.6933 108.454 36.76C107.067 35.8 105.96 34.4933 105.134 32.84C104.307 31.16 103.894 29.2667 103.894 27.16C103.894 25 104.307 23.0933 105.134 21.44C105.96 19.7867 107.094 18.4933 108.534 17.56C109.974 16.6 111.614 16.12 113.454 16.12C114.467 16.12 115.387 16.2667 116.214 16.56C117.067 16.8533 117.814 17.2667 118.454 17.8C119.094 18.3067 119.64 18.9067 120.094 19.6C120.547 20.2667 120.88 20.9867 121.094 21.76L119.774 21.6V16.56H126.134V37.8H119.654V32.68L121.094 32.64C120.88 33.3867 120.534 34.0933 120.054 34.76C119.574 35.4267 118.987 36.0133 118.294 36.52C117.6 37.0267 116.827 37.4267 115.974 37.72C115.12 38.0133 114.214 38.16 113.254 38.16ZM115.014 32.76C116 32.76 116.854 32.5333 117.574 32.08C118.294 31.6267 118.854 30.9867 119.254 30.16C119.654 29.3067 119.854 28.3067 119.854 27.16C119.854 26.0133 119.654 25.0267 119.254 24.2C118.854 23.3467 118.294 22.6933 117.574 22.24C116.854 21.76 116 21.52 115.014 21.52C114.054 21.52 113.214 21.76 112.494 22.24C111.8 22.6933 111.254 23.3467 110.854 24.2C110.454 25.0267 110.254 26.0133 110.254 27.16C110.254 28.3067 110.454 29.3067 110.854 30.16C111.254 30.9867 111.8 31.6267 112.494 32.08C113.214 32.5333 114.054 32.76 115.014 32.76Z" fill="#212529"/>
<path d="M141.101 38.2C139.048 38.2 137.208 37.72 135.581 36.76C133.954 35.8 132.661 34.4933 131.701 32.84C130.768 31.16 130.301 29.2667 130.301 27.16C130.301 25.0533 130.768 23.1733 131.701 21.52C132.661 19.84 133.954 18.52 135.581 17.56C137.208 16.6 139.048 16.12 141.101 16.12C142.994 16.12 144.728 16.4533 146.301 17.12C147.901 17.7867 149.168 18.72 150.101 19.92L146.621 24.08C146.248 23.6533 145.808 23.2533 145.301 22.88C144.794 22.5067 144.234 22.2133 143.621 22C143.008 21.7867 142.368 21.68 141.701 21.68C140.688 21.68 139.794 21.92 139.021 22.4C138.248 22.8533 137.648 23.4933 137.221 24.32C136.794 25.1467 136.581 26.0933 136.581 27.16C136.581 28.1733 136.794 29.0933 137.221 29.92C137.674 30.7467 138.288 31.4 139.061 31.88C139.834 32.36 140.714 32.6 141.701 32.6C142.394 32.6 143.034 32.52 143.621 32.36C144.208 32.1733 144.741 31.9067 145.221 31.56C145.728 31.2133 146.194 30.7867 146.621 30.28L150.061 34.48C149.154 35.6267 147.888 36.5333 146.261 37.2C144.661 37.8667 142.941 38.2 141.101 38.2Z" fill="#212529"/>
<path d="M153.538 37.8V16.56H159.618L159.818 20.4L158.978 20.44C159.298 19.7467 159.698 19.1333 160.178 18.6C160.684 18.0667 161.244 17.6267 161.858 17.28C162.498 16.9067 163.151 16.6267 163.818 16.44C164.511 16.2533 165.204 16.16 165.898 16.16C166.938 16.16 167.884 16.32 168.738 16.64C169.591 16.96 170.338 17.48 170.978 18.2C171.618 18.8933 172.124 19.84 172.498 21.04L171.498 20.96L171.818 20.32C172.164 19.68 172.604 19.1067 173.138 18.6C173.698 18.0667 174.311 17.6267 174.978 17.28C175.644 16.9067 176.338 16.6267 177.058 16.44C177.778 16.2533 178.471 16.16 179.138 16.16C180.818 16.16 182.218 16.4933 183.338 17.16C184.458 17.8 185.298 18.7733 185.858 20.08C186.444 21.3867 186.738 22.9733 186.738 24.84V37.8H180.298V25.36C180.298 24.5067 180.178 23.8 179.938 23.24C179.698 22.68 179.338 22.2667 178.858 22C178.404 21.7067 177.831 21.56 177.138 21.56C176.578 21.56 176.058 21.6533 175.578 21.84C175.124 22.0267 174.724 22.28 174.378 22.6C174.058 22.92 173.804 23.2933 173.618 23.72C173.431 24.1467 173.338 24.6267 173.338 25.16V37.8H166.898V25.32C166.898 24.52 166.778 23.84 166.538 23.28C166.298 22.72 165.938 22.2933 165.458 22C164.978 21.7067 164.418 21.56 163.778 21.56C163.218 21.56 162.698 21.6533 162.218 21.84C161.764 22.0267 161.364 22.28 161.018 22.6C160.698 22.92 160.444 23.2933 160.258 23.72C160.071 24.1467 159.978 24.6133 159.978 25.12V37.8H153.538Z" fill="#212529"/>
<path d="M199.894 38.16C198.108 38.16 196.508 37.6933 195.094 36.76C193.708 35.8 192.601 34.4933 191.774 32.84C190.948 31.16 190.534 29.2667 190.534 27.16C190.534 25 190.948 23.0933 191.774 21.44C192.601 19.7867 193.734 18.4933 195.174 17.56C196.614 16.6 198.254 16.12 200.094 16.12C201.108 16.12 202.028 16.2667 202.854 16.56C203.708 16.8533 204.454 17.2667 205.094 17.8C205.734 18.3067 206.281 18.9067 206.734 19.6C207.188 20.2667 207.521 20.9867 207.734 21.76L206.414 21.6V16.56H212.774V37.8H206.294V32.68L207.734 32.64C207.521 33.3867 207.174 34.0933 206.694 34.76C206.214 35.4267 205.628 36.0133 204.934 36.52C204.241 37.0267 203.468 37.4267 202.614 37.72C201.761 38.0133 200.854 38.16 199.894 38.16ZM201.654 32.76C202.641 32.76 203.494 32.5333 204.214 32.08C204.934 31.6267 205.494 30.9867 205.894 30.16C206.294 29.3067 206.494 28.3067 206.494 27.16C206.494 26.0133 206.294 25.0267 205.894 24.2C205.494 23.3467 204.934 22.6933 204.214 22.24C203.494 21.76 202.641 21.52 201.654 21.52C200.694 21.52 199.854 21.76 199.134 22.24C198.441 22.6933 197.894 23.3467 197.494 24.2C197.094 25.0267 196.894 26.0133 196.894 27.16C196.894 28.3067 197.094 29.3067 197.494 30.16C197.894 30.9867 198.441 31.6267 199.134 32.08C199.854 32.5333 200.694 32.76 201.654 32.76Z" fill="#212529"/>
<path d="M218.422 37.8V16.56H224.502L224.702 20.88L223.422 21.36C223.715 20.4 224.235 19.5333 224.982 18.76C225.755 17.96 226.675 17.32 227.742 16.84C228.808 16.36 229.928 16.12 231.102 16.12C232.702 16.12 234.048 16.4533 235.142 17.12C236.235 17.76 237.062 18.7333 237.622 20.04C238.182 21.32 238.462 22.8933 238.462 24.76V37.8H232.022V25.28C232.022 24.4267 231.902 23.72 231.662 23.16C231.422 22.6 231.048 22.1867 230.542 21.92C230.062 21.6267 229.462 21.4933 228.742 21.52C228.182 21.52 227.662 21.6133 227.182 21.8C226.702 21.96 226.288 22.2133 225.942 22.56C225.595 22.88 225.315 23.2533 225.102 23.68C224.915 24.1067 224.822 24.5733 224.822 25.08V37.8H221.662C220.915 37.8 220.275 37.8 219.742 37.8C219.208 37.8 218.768 37.8 218.422 37.8Z" fill="#212529"/>
</svg>
