<svg width="32" height="32" viewBox="0 0 32 32" fill="none" xmlns="http://www.w3.org/2000/svg">
<rect width="32" height="32" fill="#0033FF"/>
<path d="M13.8747 11.4184C14.0853 11.597 14.0843 11.9157 13.8891 12.1109L10.3536 15.6464C10.1583 15.8417 10.1583 16.1583 10.3536 16.3536L13.8891 19.8891C14.0843 20.0843 14.0853 20.403 13.8747 20.5816C11.5173 22.5797 7.98148 22.4668 5.75736 20.2426C3.41421 17.8995 3.41421 14.1005 5.75736 11.7574C7.98148 9.53324 11.5173 9.42026 13.8747 11.4184Z" fill="white"/>
<path fill-rule="evenodd" clip-rule="evenodd" d="M18 10C17.4477 10 17 10.4477 17 11V14C17 14.5523 17.4477 15 18 15H21C21.5523 15 22 14.5523 22 14V11C22 10.4477 21.5523 10 21 10H18ZM18.5 11.5V13.5H20.5V11.5H18.5Z" fill="white"/>
<path fill-rule="evenodd" clip-rule="evenodd" d="M24 17C23.4477 17 23 17.4477 23 18V21C23 21.5523 23.4477 22 24 22H27C27.5523 22 28 21.5523 28 21V18C28 17.4477 27.5523 17 27 17H24ZM24.5 18.5V20.5H26.5V18.5H24.5Z" fill="white"/>
<path d="M25 11.5H24.25C23.8358 11.5 23.5 11.1642 23.5 10.75C23.5 10.3358 23.8358 10 24.25 10H25.75C26.1642 10 26.5 10.3358 26.5 10.75V13.5H27.25C27.6642 13.5 28 13.8358 28 14.25C28 14.6642 27.6642 15 27.25 15H23.75C23.3358 15 23 14.6642 23 14.25C23 13.8358 23.3358 13.5 23.75 13.5H25V11.5Z" fill="white"/>
<path d="M18.25 18.5H19V20.5H17.75C17.3358 20.5 17 20.8358 17 21.25C17 21.6642 17.3358 22 17.75 22H21.25C21.6642 22 22 21.6642 22 21.25C22 20.8358 21.6642 20.5 21.25 20.5H20.5V17.75C20.5 17.3358 20.1642 17 19.75 17H18.25C17.8358 17 17.5 17.3358 17.5 17.75C17.5 18.1642 17.8358 18.5 18.25 18.5Z" fill="white"/>
</svg>
